<svg width="312" height="308" viewBox="0 0 312 308" fill="none" xmlns="http://www.w3.org/2000/svg">
<path d="M6.15 5.33735C7.44 4.16735 9.85 2.49735 11.5 1.62735C14.19 0.207348 28.94 0.0473483 155.75 0.00734831C292.65 -0.0326517 297.12 0.0273483 300.75 1.86735C302.81 2.91735 305.46 4.82735 306.63 6.11735C307.81 7.40735 309.49 9.92735 310.38 11.7173C311.85 14.6673 312 27.9473 312 153.967C312 279.987 311.85 293.267 310.38 296.217C309.49 298.007 307.81 300.527 306.63 301.817C305.46 303.107 302.81 305.017 300.75 306.067C297.3 307.817 294.46 307.967 234.5 308.007L233.13 301.737C232.38 298.287 231.25 294.577 230.63 293.487C230.01 292.387 227.66 289.017 225.41 285.987C223.16 282.947 219.34 278.747 216.91 276.657C214.48 274.557 208.68 270.627 204 267.927C199.32 265.237 194.49 263.017 193.25 262.997C192.01 262.977 191.01 262.627 191.02 262.217C191.03 261.807 193.38 258.097 196.24 253.967C199.1 249.847 202.92 243.767 204.73 240.467C206.54 237.167 209.76 231.097 211.88 226.967C214 222.847 217.22 216.097 219.03 211.967C220.84 207.847 222.6 203.117 223.55 198.467L226.15 202.967C227.58 205.447 230.38 208.927 232.37 210.717C235 213.077 236.96 213.967 239.5 213.967C241.43 213.967 244.46 213.367 246.25 212.627C248.04 211.887 250.96 209.637 252.75 207.627C254.54 205.617 257.29 201.377 258.86 198.217C260.43 195.057 262.89 188.867 264.31 184.467C265.74 180.067 267.62 172.647 268.48 167.967C269.35 163.287 270.49 154.177 271.03 147.717C271.68 139.807 271.66 132.617 270.95 125.717C270.37 120.077 269.2 112.767 268.35 109.467C267.49 106.167 265.32 100.537 263.52 96.9673C261.68 93.3173 258.21 88.6073 255.62 86.2173C253.08 83.8773 249.54 81.2074 247.75 80.2774C245.63 79.1674 242.07 78.5673 237.5 78.5473C231.5 78.5173 229.43 79.0274 223 82.0873C218.88 84.0574 213.25 87.6873 210.5 90.1473C207.75 92.6173 202.96 97.9773 199.86 102.057C196.76 106.127 192.3 113.287 189.96 117.967C187.63 122.647 184.6 129.397 183.25 132.967C181.9 136.537 179.5 143.747 177.91 148.967C176.33 154.187 173.7 165.217 172.07 173.467C170.44 181.717 167.92 196.117 166.48 205.467C165.03 214.817 162.74 228.317 161.38 235.467C160.02 242.617 158.48 249.927 157.95 251.717C157.43 253.507 156.44 254.817 155.75 254.637C155.06 254.457 153.99 252.777 153.36 250.887C152.74 249.007 149.69 232.167 146.59 213.467C143.49 194.767 140.24 176.097 139.37 171.967C138.49 167.847 136.89 161.097 135.82 156.967C134.75 152.847 132.48 145.187 130.79 139.967C129.1 134.747 125.47 125.967 122.72 120.467C119.98 114.967 115.9 107.767 113.65 104.467C111.4 101.167 106.81 95.7673 103.44 92.4673C99.46 88.5673 94.55 85.0873 89.41 82.5373C82.51 79.0973 80.61 78.5973 74.5 78.5673C68.59 78.5473 66.66 78.9973 62.1 81.5073C59.14 83.1373 55.23 86.2673 53.42 88.4673C51.61 90.6673 48.81 95.3973 47.2 98.9673C45.59 102.537 43.43 108.847 42.39 112.967C40.89 118.907 40.51 123.997 40.55 137.467C40.59 149.727 41.09 156.837 42.38 162.967C43.35 167.647 45.47 176.077 47.08 181.717C48.68 187.357 51.41 194.777 53.14 198.217C54.87 201.657 57.45 205.987 58.89 207.847C60.33 209.697 62.74 211.837 64.25 212.597C65.76 213.347 68.8 213.967 71 213.967C74.11 213.967 75.8 213.237 78.6 210.717C80.58 208.927 83.5 205.217 85.08 202.467C86.97 199.187 87.96 198.157 87.96 199.467C87.97 200.567 89.15 204.397 90.59 207.967C92.03 211.537 96.47 220.767 100.45 228.467C104.44 236.167 110.45 246.737 113.82 251.967C117.19 257.197 119.97 261.917 120 262.467C120.03 263.017 116.79 264.817 112.8 266.467C108.81 268.117 102.94 271.157 99.77 273.217C96.6 275.277 92.31 279.107 90.24 281.717C88.18 284.327 84.82 289.167 82.78 292.467C79.89 297.137 79.06 299.517 79 307.967H47C19.53 307.967 14.54 307.737 11.75 306.347C9.96 305.457 7.44 303.777 6.15 302.597C4.86 301.427 2.95 298.777 1.9 296.717C0.0599999 293.087 0 288.617 0 153.967C0 19.3174 0.0599999 14.8473 1.9 11.2173C2.95 9.15735 4.86 6.50735 6.15 5.33735Z" fill="#C12A7B"/>
</svg>
